<?xml version="1.0" encoding="utf-8"?>
<svg viewBox="0 0 300 300" xmlns="http://www.w3.org/2000/svg">
  <g style="" transform="matrix(1.084588, 0, 0, 1.084588, -15.703156, -11.426012)">
    <path class="st0" d="M 94.081 130.025 C 94.081 133.257 94.43 135.877 95.041 137.798 C 95.74 139.72 96.614 141.816 97.836 144.087 C 98.273 144.786 98.448 145.484 98.448 146.096 C 98.448 146.969 97.924 147.843 96.788 148.716 L 91.286 152.385 C 90.5 152.909 89.714 153.171 89.015 153.171 C 88.141 153.171 87.268 152.734 86.395 151.948 C 85.172 150.638 84.124 149.24 83.25 147.843 C 82.377 146.358 81.503 144.698 80.543 142.69 C 73.73 150.725 65.17 154.743 54.864 154.743 C 47.527 154.743 41.675 152.647 37.396 148.454 C 33.116 144.262 30.932 138.672 30.932 131.684 C 30.932 124.26 33.552 118.234 38.88 113.692 C 44.208 109.15 51.283 106.879 60.279 106.879 C 63.249 106.879 66.306 107.141 69.538 107.578 C 72.769 108.015 76.088 108.713 79.582 109.499 L 79.582 103.123 C 79.582 96.485 78.184 91.856 75.477 89.149 C 72.682 86.441 67.965 85.131 61.24 85.131 C 58.183 85.131 55.039 85.48 51.807 86.266 C 48.575 87.052 45.431 88.013 42.374 89.236 C 40.977 89.847 39.928 90.197 39.317 90.371 C 38.706 90.546 38.269 90.633 37.92 90.633 C 36.697 90.633 36.085 89.76 36.085 87.926 L 36.085 83.646 C 36.085 82.249 36.26 81.2 36.697 80.589 C 37.133 79.978 37.92 79.366 39.142 78.755 C 42.199 77.183 45.868 75.873 50.147 74.824 C 54.427 73.689 58.969 73.165 63.773 73.165 C 74.167 73.165 81.765 75.523 86.657 80.24 C 91.46 84.956 93.906 92.118 93.906 101.726 L 93.906 130.025 L 94.081 130.025 Z M 58.62 143.301 C 61.502 143.301 64.472 142.777 67.616 141.729 C 70.76 140.681 73.555 138.759 75.914 136.139 C 77.311 134.479 78.359 132.645 78.883 130.549 C 79.407 128.453 79.757 125.92 79.757 122.95 L 79.757 119.282 C 77.224 118.67 74.516 118.146 71.721 117.797 C 68.926 117.448 66.219 117.273 63.511 117.273 C 57.659 117.273 53.379 118.408 50.497 120.767 C 47.615 123.125 46.217 126.444 46.217 130.811 C 46.217 134.916 47.265 137.973 49.449 140.069 C 51.545 142.253 54.602 143.301 58.62 143.301 Z M 128.756 152.734 C 127.184 152.734 126.135 152.472 125.437 151.86 C 124.738 151.336 124.127 150.114 123.602 148.454 L 103.077 80.938 C 102.553 79.192 102.291 78.056 102.291 77.445 C 102.291 76.047 102.99 75.261 104.387 75.261 L 112.947 75.261 C 114.606 75.261 115.742 75.523 116.353 76.135 C 117.052 76.659 117.576 77.881 118.1 79.541 L 132.773 137.362 L 146.399 79.541 C 146.836 77.794 147.36 76.659 148.058 76.135 C 148.757 75.611 149.98 75.261 151.552 75.261 L 158.539 75.261 C 160.199 75.261 161.334 75.523 162.033 76.135 C 162.732 76.659 163.343 77.881 163.693 79.541 L 177.493 138.06 L 192.603 79.541 C 193.127 77.794 193.738 76.659 194.35 76.135 C 195.049 75.611 196.184 75.261 197.756 75.261 L 205.879 75.261 C 207.277 75.261 208.063 75.96 208.063 77.445 C 208.063 77.881 207.975 78.318 207.888 78.842 C 207.801 79.366 207.626 80.065 207.277 81.026 L 186.227 148.541 C 185.703 150.288 185.092 151.424 184.393 151.948 C 183.694 152.472 182.559 152.821 181.074 152.821 L 173.562 152.821 C 171.903 152.821 170.767 152.559 170.069 151.948 C 169.37 151.336 168.758 150.201 168.409 148.454 L 154.871 92.118 L 141.42 148.367 C 140.984 150.114 140.46 151.249 139.761 151.86 C 139.062 152.472 137.839 152.734 136.267 152.734 L 128.756 152.734 Z M 240.991 155.092 C 236.449 155.092 231.907 154.568 227.54 153.52 C 223.173 152.472 219.766 151.336 217.496 150.026 C 216.098 149.24 215.137 148.367 214.788 147.581 C 214.439 146.795 214.264 145.921 214.264 145.135 L 214.264 140.681 C 214.264 138.846 214.963 137.973 216.273 137.973 C 216.797 137.973 217.321 138.06 217.845 138.235 C 218.369 138.41 219.155 138.759 220.028 139.108 C 222.998 140.419 226.23 141.467 229.636 142.165 C 233.13 142.864 236.536 143.214 240.03 143.214 C 245.532 143.214 249.812 142.253 252.782 140.331 C 255.752 138.41 257.324 135.615 257.324 132.034 C 257.324 129.588 256.538 127.579 254.965 125.92 C 253.393 124.26 250.424 122.775 246.144 121.378 L 233.479 117.448 C 227.103 115.439 222.387 112.469 219.504 108.539 C 216.622 104.696 215.137 100.416 215.137 95.874 C 215.137 92.206 215.923 88.974 217.496 86.179 C 219.068 83.384 221.164 80.938 223.784 79.017 C 226.404 77.008 229.374 75.523 232.868 74.475 C 236.362 73.427 240.03 72.99 243.873 72.99 C 245.795 72.99 247.803 73.078 249.725 73.34 C 251.734 73.602 253.568 73.951 255.402 74.3 C 257.149 74.737 258.809 75.174 260.381 75.698 C 261.953 76.222 263.176 76.746 264.049 77.27 C 265.272 77.969 266.145 78.668 266.669 79.454 C 267.193 80.152 267.455 81.113 267.455 82.336 L 267.455 86.441 C 267.455 88.275 266.757 89.236 265.447 89.236 C 264.748 89.236 263.612 88.887 262.128 88.188 C 257.149 85.917 251.559 84.781 245.358 84.781 C 240.379 84.781 236.449 85.568 233.741 87.227 C 231.034 88.887 229.636 91.42 229.636 95.001 C 229.636 97.446 230.51 99.542 232.256 101.202 C 234.003 102.861 237.235 104.521 241.864 106.006 L 254.267 109.936 C 260.555 111.945 265.097 114.74 267.805 118.321 C 270.512 121.902 271.823 126.007 271.823 130.549 C 271.823 134.305 271.036 137.711 269.552 140.681 C 267.979 143.65 265.883 146.271 263.176 148.367 C 260.468 150.55 257.236 152.122 253.481 153.258 C 249.55 154.481 245.445 155.092 240.991 155.092 Z" style="fill: rgb(251, 251, 253);"/>
    <g transform="matrix(0.873424, 0, 0, 0.873424, 18.616884, 72.029503)">
      <path class="st1" d="M273.5,143.7c-32.9,24.3-80.7,37.2-121.8,37.2c-57.6,0-109.5-21.3-148.7-56.7c-3.1-2.8-0.3-6.6,3.4-4.4 c42.4,24.6,94.7,39.5,148.8,39.5c36.5,0,76.6-7.6,113.5-23.2C274.2,133.6,278.9,139.7,273.5,143.7z" style="clip-rule: evenodd; fill: rgb(255, 153, 0); fill-rule: evenodd;"/>
      <path class="st1" d="M287.2,128.1c-4.2-5.4-27.8-2.6-38.5-1.3c-3.2,0.4-3.7-2.4-0.8-4.5c18.8-13.2,49.7-9.4,53.3-5 c3.6,4.5-1,35.4-18.6,50.2c-2.7,2.3-5.3,1.1-4.1-1.9C282.5,155.7,291.4,133.4,287.2,128.1z" style="clip-rule: evenodd; fill: rgb(255, 153, 0); fill-rule: evenodd;"/>
    </g>
  </g>
</svg>