<?xml version="1.0" encoding="utf-8"?>
<svg viewBox="0 0 300 300" xmlns="http://www.w3.org/2000/svg">
  <g transform="matrix(1, 0, 0, 1, 107.187225, 89.323143)" stroke="none" stroke-width="1" fill="none" fill-rule="evenodd">
    <g transform="matrix(2.967338, 0, 0, 2.967338, -76.486534, -72.745804)" style="">
      <path d="M 73.95 18.712 L 45.313 1.713 C 41.895 -0.316 37.682 -0.316 34.264 1.713 L 5.627 18.712 C 2.21 20.741 0.104 24.49 0.104 28.548 L 0.104 62.546 C 0.104 66.603 2.21 70.354 5.628 72.383 L 34.265 89.379 C 35.974 90.394 37.88 90.9 39.789 90.9 C 41.697 90.9 43.603 90.394 45.312 89.379 L 73.949 72.383 C 77.367 70.354 79.474 66.603 79.474 62.546 L 79.474 28.548 C 79.474 24.49 77.367 20.741 73.95 18.712 Z" id="Fill-2" fill="#FEFEFE"/>
      <path d="M 35.266 87.638 L 6.629 70.642 C 3.828 68.979 2.088 65.877 2.088 62.545 L 2.088 28.548 C 2.088 25.216 3.828 22.114 6.628 20.452 L 35.266 3.453 C 36.639 2.638 38.203 2.207 39.789 2.207 C 41.374 2.207 42.938 2.638 44.312 3.453 L 72.949 20.452 C 75.309 21.853 76.901 24.279 77.349 27 C 76.399 24.973 74.257 24.422 71.761 25.88 L 44.669 42.614 C 41.291 44.589 38.8 46.805 38.798 50.878 L 38.798 84.261 C 38.796 86.7 39.781 88.28 41.294 88.738 C 40.797 88.824 40.296 88.884 39.789 88.884 C 38.203 88.884 36.639 88.453 35.266 87.638 M 73.95 18.711 L 45.313 1.713 C 43.604 0.698 41.696 0.191 39.789 0.191 C 37.881 0.191 35.973 0.698 34.264 1.713 L 5.627 18.711 C 2.21 20.74 0.104 24.49 0.104 28.548 L 0.104 62.545 C 0.104 66.602 2.21 70.353 5.628 72.382 L 34.265 89.379 C 35.975 90.393 37.881 90.9 39.789 90.9 C 41.697 90.9 43.603 90.393 45.312 89.379 L 73.95 72.382 C 77.368 70.353 79.474 66.602 79.474 62.545 L 79.474 28.548 C 79.474 24.49 77.368 20.74 73.95 18.711" id="Fill-4" fill="#3E474A"/>
      <path d="M 66.443 65.832 L 59.312 70.1 C 59.123 70.21 58.984 70.334 58.983 70.561 L 58.983 72.427 C 58.983 72.655 59.136 72.75 59.325 72.639 L 66.566 68.238 C 66.755 68.128 66.784 67.917 66.785 67.69 L 66.785 66.044 C 66.785 65.817 66.632 65.722 66.443 65.832" id="Fill-6" fill="#47B353"/>
      <path d="M 51.258 50.125 C 51.489 50.008 51.679 50.152 51.682 50.454 L 51.706 52.921 C 52.739 52.51 53.636 52.4 54.449 52.588 C 54.625 52.635 54.703 52.875 54.631 53.16 L 54.088 55.346 C 54.046 55.511 53.953 55.678 53.841 55.782 C 53.794 55.828 53.746 55.864 53.698 55.888 C 53.625 55.925 53.553 55.937 53.484 55.923 C 53.113 55.839 52.231 55.646 50.843 56.349 C 49.387 57.086 48.878 58.351 48.888 59.29 C 48.9 60.411 49.475 60.751 51.461 60.785 C 54.107 60.829 55.25 61.985 55.278 64.65 C 55.305 67.267 53.908 70.077 51.771 71.799 L 51.818 74.241 C 51.821 74.535 51.63 74.872 51.399 74.989 L 49.953 75.822 C 49.721 75.939 49.531 75.795 49.528 75.501 L 49.503 73.099 C 48.264 73.614 47.009 73.738 46.207 73.416 C 46.056 73.357 45.991 73.134 46.051 72.88 L 46.575 70.672 C 46.617 70.498 46.709 70.324 46.834 70.213 C 46.878 70.17 46.924 70.137 46.97 70.114 C 47.053 70.072 47.134 70.063 47.203 70.089 C 48.067 70.38 49.172 70.244 50.235 69.706 C 51.585 69.023 52.488 67.646 52.474 66.278 C 52.461 65.037 51.789 64.521 50.155 64.509 C 48.075 64.515 46.136 64.105 46.104 61.043 C 46.078 58.522 47.389 55.899 49.464 54.24 L 49.438 51.775 C 49.435 51.472 49.62 51.139 49.858 51.019 L 51.258 50.125 Z" id="Fill-8" fill="#FEFEFE"/>
    </g>
  </g>
</svg>