<?xml version="1.0" encoding="utf-8"?>
<svg viewBox="0 0 150 150" fill="#fff" xmlns="http://www.w3.org/2000/svg">
  <path d="M 31.192 15.284 C 22.64 15.284 16.314 22.772 16.596 30.893 C 16.868 38.693 16.515 48.797 13.971 57.036 C 11.421 65.301 7.108 70.523 0.062 71.196 L 0.062 78.806 C 7.108 79.477 11.421 84.701 13.971 92.966 C 16.515 101.204 16.867 111.309 16.596 119.109 C 16.313 127.23 22.64 134.717 31.192 134.717 L 118.821 134.717 C 127.373 134.717 133.699 127.229 133.417 119.109 C 133.145 111.309 133.498 101.204 136.041 92.966 C 138.591 84.702 142.894 79.478 149.939 78.806 L 149.939 71.196 C 142.894 70.525 138.592 65.301 136.041 57.036 C 133.498 48.797 133.145 38.693 133.417 30.893 C 133.699 22.772 127.373 15.284 118.82 15.284 L 31.192 15.284 Z M 100.44 88.788 C 100.44 99.97 92.096 106.749 78.251 106.749 L 52.725 106.749 C 52.402 106.749 52.14 106.487 52.14 106.164 L 52.14 43.813 C 52.139 43.489 52.401 43.227 52.725 43.227 L 78.117 43.227 C 89.662 43.227 97.238 49.478 97.238 59.075 C 97.238 65.811 92.142 71.84 85.648 72.897 L 85.648 73.25 C 94.487 74.219 100.44 80.337 100.44 88.788 Z M 75.681 51.283 L 62.242 51.283 L 62.242 70.255 L 73.563 70.255 C 82.311 70.255 87.136 66.734 87.136 60.439 C 87.136 54.541 82.988 51.283 75.681 51.283 Z M 62.242 77.784 L 62.242 98.694 L 76.178 98.694 C 85.288 98.694 90.114 95.04 90.114 88.172 C 90.114 81.305 85.153 77.784 75.592 77.784 L 62.242 77.784 Z" fill="#7952b3" style=""/>
</svg>