<?xml version="1.0" encoding="utf-8"?>
<svg viewBox="0 0 300 300" xmlns="http://www.w3.org/2000/svg">
  <path d="M 101.105 175.429 L 88.544 175.429 L 88.544 225.212 L 101.105 225.212 L 101.105 175.429 Z" style="stroke-width: 0.096737; fill: rgb(31, 159, 220);" id="path268"/>
  <path d="M 202.396 189.695 C 201.891 189.432 197.852 187.036 191.842 187.036 C 183.706 187.036 178.076 192.69 178.076 200.315 C 178.076 207.711 183.471 213.604 191.842 213.604 C 197.749 213.604 201.855 211.26 202.396 210.961 L 202.396 224.324 C 200.836 224.766 196.551 226.095 190.941 226.095 C 176.818 226.095 164.432 216.354 164.432 200.315 C 164.432 185.449 175.652 174.546 190.941 174.546 C 196.852 174.546 201.215 175.983 202.396 176.333 L 202.396 189.695 Z" id="use360" style="fill: rgb(31, 159, 220);"/>
  <path d="M 71.271 189.695 C 70.766 189.432 66.727 187.036 60.719 187.036 C 52.581 187.036 46.951 192.69 46.951 200.315 C 46.951 207.711 52.346 213.604 60.719 213.604 C 66.624 213.604 70.73 211.26 71.271 210.961 L 71.271 224.324 C 69.711 224.766 65.425 226.095 59.815 226.095 C 45.694 226.095 33.307 216.354 33.307 200.315 C 33.307 185.449 44.528 174.546 59.815 174.546 C 65.728 174.546 70.089 175.983 71.271 176.333 L 71.271 189.695 Z" id="path284" style="fill: rgb(31, 159, 220);"/>
  <path d="M 241.911 187.223 C 234.459 187.223 228.924 193.089 228.924 200.315 C 228.924 207.556 234.459 213.417 241.911 213.417 C 249.356 213.417 254.907 207.556 254.907 200.315 C 254.907 193.089 249.356 187.223 241.911 187.223 M 268.217 200.315 C 268.217 214.556 257.223 226.095 241.911 226.095 C 226.6 226.095 215.621 214.556 215.621 200.315 C 215.621 186.097 226.6 174.546 241.911 174.546 C 257.223 174.546 268.217 186.097 268.217 200.315" id="path288" style="fill: rgb(31, 159, 220);"/>
  <path d="M 148.742 186.746 C 148.556 186.686 143.268 185.226 138.922 185.226 C 133.889 185.226 131.151 186.912 131.151 189.304 C 131.151 192.336 134.844 193.394 136.909 194.047 L 140.375 195.149 C 148.527 197.743 152.244 203.326 152.244 209.39 C 152.244 221.896 141.246 226.099 131.632 226.099 C 124.952 226.099 118.692 224.868 118.077 224.737 L 118.077 213.281 C 119.182 213.56 124.451 215.131 129.937 215.131 C 136.189 215.131 139.061 213.306 139.061 210.484 C 139.061 207.962 136.574 206.506 133.459 205.526 C 132.699 205.272 131.557 204.914 130.777 204.66 C 123.781 202.447 117.948 198.336 117.948 190.096 C 117.948 180.785 124.92 174.535 136.499 174.535 C 142.615 174.535 148.369 176.018 148.742 176.118 L 148.742 186.746 Z" id="path292" style="fill: rgb(31, 159, 220);"/>
  <g style="fill: rgb(21, 73, 93);" id="g383" transform="matrix(3.979028, 0, 0, 3.979028, 7.513763, 74.980141)">
    <path d="m 3.135,11.7996 c 0,-0.862 -0.704,-1.561 -1.567,-1.561 -0.863,0 -1.568,0.699 -1.568,1.561 v 3.284 c 0,0.867 0.705,1.567 1.568,1.567 0.863,0 1.567,-0.7 1.567,-1.567 z" id="path296" style="fill: rgb(31, 159, 220);"/>
    <path d="m 11.7443,7.4891 c 0,-0.862 -0.704,-1.563 -1.567,-1.563 -0.864,0 -1.568,0.701 -1.568,1.563 v 7.595 c 0,0.867 0.704,1.566 1.568,1.566 0.863,0 1.567,-0.699 1.567,-1.566 z" id="path300" style="fill: rgb(31, 159, 220);"/>
    <path d="m 20.3537,1.5916 c 0,-0.862 -0.704,-1.562 -1.567,-1.562 -0.864,0 -1.568,0.7 -1.568,1.562 v 16.613 c 0,0.867 0.704,1.567 1.568,1.567 0.863,0 1.567,-0.7 1.567,-1.567 z" id="path304" style="fill: rgb(31, 159, 220);"/>
    <path d="m 28.9631,7.4891 c 0,-0.862 -0.704,-1.563 -1.567,-1.563 -0.864,0 -1.568,0.701 -1.568,1.563 v 7.595 c 0,0.867 0.704,1.566 1.568,1.566 0.863,0 1.567,-0.699 1.567,-1.566 z" id="path308" style="fill: rgb(31, 159, 220);"/>
    <path d="m 37.5627,11.7996 c 0,-0.862 -0.699,-1.561 -1.558,-1.561 -0.863,0 -1.567,0.699 -1.567,1.561 v 3.284 c 0,0.867 0.704,1.567 1.567,1.567 0.859,0 1.558,-0.7 1.558,-1.567 z" id="path312" style="fill: rgb(31, 159, 220);"/>
  </g>
  <g style="fill: rgb(21, 73, 93);" id="use385" transform="matrix(3.979028, 0, 0, 3.979028, 144.518433, 74.980141)">
    <path d="m 3.135,11.7996 c 0,-0.862 -0.704,-1.561 -1.567,-1.561 -0.863,0 -1.568,0.699 -1.568,1.561 v 3.284 c 0,0.867 0.705,1.567 1.568,1.567 0.863,0 1.567,-0.7 1.567,-1.567 z" style="fill: rgb(31, 159, 220);"/>
    <path d="m 11.7443,7.4891 c 0,-0.862 -0.704,-1.563 -1.567,-1.563 -0.864,0 -1.568,0.701 -1.568,1.563 v 7.595 c 0,0.867 0.704,1.566 1.568,1.566 0.863,0 1.567,-0.699 1.567,-1.566 z" style="fill: rgb(31, 159, 220);"/>
    <path d="m 20.3537,1.5916 c 0,-0.862 -0.704,-1.562 -1.567,-1.562 -0.864,0 -1.568,0.7 -1.568,1.562 v 16.613 c 0,0.867 0.704,1.567 1.568,1.567 0.863,0 1.567,-0.7 1.567,-1.567 z" style="fill: rgb(31, 159, 220);"/>
    <path d="m 28.9631,7.4891 c 0,-0.862 -0.704,-1.563 -1.567,-1.563 -0.864,0 -1.568,0.701 -1.568,1.563 v 7.595 c 0,0.867 0.704,1.566 1.568,1.566 0.863,0 1.567,-0.699 1.567,-1.566 z" style="fill: rgb(31, 159, 220);"/>
    <path d="m 37.5627,11.7996 c 0,-0.862 -0.699,-1.561 -1.558,-1.561 -0.863,0 -1.567,0.699 -1.567,1.561 v 3.284 c 0,0.867 0.704,1.567 1.567,1.567 0.859,0 1.558,-0.7 1.558,-1.567 z" style="fill: rgb(31, 159, 220);"/>
  </g>
  <path d="M 286.814 218.658 L 286.814 219.437 L 284.594 219.437 L 284.594 225.212 L 283.683 225.212 L 283.683 219.437 L 281.452 219.437 L 281.452 218.658 L 286.814 218.658 Z" id="path332" style="fill: rgb(31, 159, 220);"/>
  <path d="M 287.281 218.658 L 288.71 218.658 L 290.67 224.033 L 290.702 224.033 L 292.6 218.658 L 294 218.658 L 294 225.212 L 293.066 225.212 L 293.066 219.839 L 293.034 219.839 L 291.044 225.212 L 290.18 225.212 L 288.239 219.839 L 288.196 219.839 L 288.196 225.212 L 287.281 225.212 L 287.281 218.658 Z" id="path336" style="fill: rgb(31, 159, 220);"/>
</svg>