<?xml version="1.0" encoding="utf-8"?>
<svg viewBox="0 0 300 300" xmlns="http://www.w3.org/2000/svg">
  <defs>
    <clipPath id="clipPath8">
      <path d="M 76.485 1.322 L 76.485 47.321 L 54.485 47.321 L 54.485 70.32 L 36.066 70.32 C 35.988 70.986 35.925 71.653 35.86 72.32 C 34.709 84.851 36.897 96.408 41.923 106.288 L 43.61 109.319 C 44.622 111.136 45.802 112.842 47.048 114.507 C 48.293 116.169 48.734 117.089 49.517 118.194 C 62.805 133.13 82.615 140.319 105.485 140.319 C 156.134 140.319 199.119 117.881 218.142 67.477 C 231.639 68.862 244.587 65.401 250.487 53.883 C 241.088 48.459 229.008 50.198 222.049 53.696 L 240.487 1.322 L 168.486 47.321 L 145.486 47.321 L 145.486 1.322 L 76.485 1.322 Z" id="path10"/>
    </clipPath>
  </defs>
  <g transform="matrix(1.306079, 0, 0, 1.306079, -33.285236, 65.491966)" style="">
    <path d="M 147.609 45.562 L 170.475 45.562 L 170.475 68.937 L 182.037 68.937 C 187.376 68.937 192.867 67.986 197.924 66.273 C 200.408 65.43 203.197 64.258 205.648 62.783 C 202.42 58.569 200.772 53.248 200.287 48.002 C 199.628 40.868 201.067 31.582 205.896 25.998 L 208.299 23.218 L 211.163 25.52 C 218.375 31.314 224.439 39.41 225.508 48.639 C 234.192 46.084 244.386 46.689 252.04 51.106 L 255.18 52.918 L 253.527 56.143 C 247.054 68.777 233.522 72.69 220.292 71.998 C 200.495 121.306 157.394 144.65 105.135 144.65 C 78.136 144.65 53.365 134.558 39.259 110.603 C 38.432 109.115 37.724 107.559 36.973 106.031 C 32.205 95.487 30.621 83.936 31.696 72.395 L 32.018 68.937 L 51.571 68.937 L 51.571 45.563 L 74.437 45.563 L 74.437 22.697 L 120.169 22.697 L 120.169 -0.169 L 147.609 -0.169 L 147.609 45.563" id="path14" style="fill:#394d54"/>
    <g clip-path="url(#clipPath8)" id="g16" transform="matrix(1, 0, 0, 1, 0.121284, -0.169746)">
      <g id="g18">
        <g transform="translate(0,-22.866)" id="g20">
          <path d="m 123.85901,3.8110794 19.81751,0 0,19.8169706 -19.81751,0 z" id="path22" style="fill:#00acd3"/>
          <path d="m 123.85901,26.676485 19.81751,0 0,19.818043 -19.81751,0 z" id="path24" style="fill:#20c2ef"/>
          <path d="m 126.29235,21.976904 0,-16.5157492 m 2.97185,16.5157492 0,-16.5157492 m 3.00184,16.5157492 0,-16.5157492 m 3.00344,16.5157492 0,-16.5157492 m 3.00292,16.5157492 0,-16.5157492 m 2.97131,16.5157492 0,-16.5157492" id="path26" style="stroke:#394d54;stroke-width:1.56"/>
          <path d="m 126.29235,21.976904 0,-16.5157492 m 2.97185,16.5157492 0,-16.5157492 m 3.00184,16.5157492 0,-16.5157492 m 3.00344,16.5157492 0,-16.5157492 m 3.00292,16.5157492 0,-16.5157492 m 2.97131,16.5157492 0,-16.5157492" id="use28" style="stroke:#394d54;stroke-width:1.56" transform="matrix(1, 0, 0, 1, 0, 22.865999221801758)"/>
        </g>
        <g transform="matrix(1, 0, 0, -1, 22.865999221801758, 27.438650131225586)" id="use30">
          <path d="m 123.85901,3.8110794 19.81751,0 0,19.8169706 -19.81751,0 z" style="fill:#00acd3"/>
          <path d="m 123.85901,26.676485 19.81751,0 0,19.818043 -19.81751,0 z" style="fill:#20c2ef"/>
          <path d="m 126.29235,21.976904 0,-16.5157492 m 2.97185,16.5157492 0,-16.5157492 m 3.00184,16.5157492 0,-16.5157492 m 3.00344,16.5157492 0,-16.5157492 m 3.00292,16.5157492 0,-16.5157492 m 2.97131,16.5157492 0,-16.5157492" style="stroke:#394d54;stroke-width:1.56"/>
          <path d="m 126.29235,21.976904 0,-16.5157492 m 2.97185,16.5157492 0,-16.5157492 m 3.00184,16.5157492 0,-16.5157492 m 3.00344,16.5157492 0,-16.5157492 m 3.00292,16.5157492 0,-16.5157492 m 2.97131,16.5157492 0,-16.5157492" style="stroke:#394d54;stroke-width:1.56" transform="matrix(1, 0, 0, 1, 0, 22.865999221801758)"/>
        </g>
      </g>
      <g id="use32" transform="matrix(1, 0, 0, 1, -91.46399688720703, 45.731998443603516)">
        <g transform="translate(0,-22.866)">
          <path d="m 123.85901,3.8110794 19.81751,0 0,19.8169706 -19.81751,0 z" style="fill:#00acd3"/>
          <path d="m 123.85901,26.676485 19.81751,0 0,19.818043 -19.81751,0 z" style="fill:#20c2ef"/>
          <path d="m 126.29235,21.976904 0,-16.5157492 m 2.97185,16.5157492 0,-16.5157492 m 3.00184,16.5157492 0,-16.5157492 m 3.00344,16.5157492 0,-16.5157492 m 3.00292,16.5157492 0,-16.5157492 m 2.97131,16.5157492 0,-16.5157492" style="stroke:#394d54;stroke-width:1.56"/>
          <path d="m 126.29235,21.976904 0,-16.5157492 m 2.97185,16.5157492 0,-16.5157492 m 3.00184,16.5157492 0,-16.5157492 m 3.00344,16.5157492 0,-16.5157492 m 3.00292,16.5157492 0,-16.5157492 m 2.97131,16.5157492 0,-16.5157492" style="stroke:#394d54;stroke-width:1.56" transform="matrix(1, 0, 0, 1, 0, 22.865999221801758)"/>
        </g>
        <g transform="matrix(1, 0, 0, -1, 22.865999221801758, 27.438650131225586)">
          <path d="m 123.85901,3.8110794 19.81751,0 0,19.8169706 -19.81751,0 z" style="fill:#00acd3"/>
          <path d="m 123.85901,26.676485 19.81751,0 0,19.818043 -19.81751,0 z" style="fill:#20c2ef"/>
          <path d="m 126.29235,21.976904 0,-16.5157492 m 2.97185,16.5157492 0,-16.5157492 m 3.00184,16.5157492 0,-16.5157492 m 3.00344,16.5157492 0,-16.5157492 m 3.00292,16.5157492 0,-16.5157492 m 2.97131,16.5157492 0,-16.5157492" style="stroke:#394d54;stroke-width:1.56"/>
          <path d="m 126.29235,21.976904 0,-16.5157492 m 2.97185,16.5157492 0,-16.5157492 m 3.00184,16.5157492 0,-16.5157492 m 3.00344,16.5157492 0,-16.5157492 m 3.00292,16.5157492 0,-16.5157492 m 2.97131,16.5157492 0,-16.5157492" style="stroke:#394d54;stroke-width:1.56" transform="matrix(1, 0, 0, 1, 0, 22.865999221801758)"/>
        </g>
      </g>
      <g id="use34" transform="matrix(1, 0, 0, 1, -45.731998443603516, 45.731998443603516)">
        <g transform="translate(0,-22.866)">
          <path d="m 123.85901,3.8110794 19.81751,0 0,19.8169706 -19.81751,0 z" style="fill:#00acd3"/>
          <path d="m 123.85901,26.676485 19.81751,0 0,19.818043 -19.81751,0 z" style="fill:#20c2ef"/>
          <path d="m 126.29235,21.976904 0,-16.5157492 m 2.97185,16.5157492 0,-16.5157492 m 3.00184,16.5157492 0,-16.5157492 m 3.00344,16.5157492 0,-16.5157492 m 3.00292,16.5157492 0,-16.5157492 m 2.97131,16.5157492 0,-16.5157492" style="stroke:#394d54;stroke-width:1.56"/>
          <path d="m 126.29235,21.976904 0,-16.5157492 m 2.97185,16.5157492 0,-16.5157492 m 3.00184,16.5157492 0,-16.5157492 m 3.00344,16.5157492 0,-16.5157492 m 3.00292,16.5157492 0,-16.5157492 m 2.97131,16.5157492 0,-16.5157492" style="stroke:#394d54;stroke-width:1.56" transform="matrix(1, 0, 0, 1, 0, 22.865999221801758)"/>
        </g>
        <g transform="matrix(1, 0, 0, -1, 22.865999221801758, 27.438650131225586)">
          <path d="m 123.85901,3.8110794 19.81751,0 0,19.8169706 -19.81751,0 z" style="fill:#00acd3"/>
          <path d="m 123.85901,26.676485 19.81751,0 0,19.818043 -19.81751,0 z" style="fill:#20c2ef"/>
          <path d="m 126.29235,21.976904 0,-16.5157492 m 2.97185,16.5157492 0,-16.5157492 m 3.00184,16.5157492 0,-16.5157492 m 3.00344,16.5157492 0,-16.5157492 m 3.00292,16.5157492 0,-16.5157492 m 2.97131,16.5157492 0,-16.5157492" style="stroke:#394d54;stroke-width:1.56"/>
          <path d="m 126.29235,21.976904 0,-16.5157492 m 2.97185,16.5157492 0,-16.5157492 m 3.00184,16.5157492 0,-16.5157492 m 3.00344,16.5157492 0,-16.5157492 m 3.00292,16.5157492 0,-16.5157492 m 2.97131,16.5157492 0,-16.5157492" style="stroke:#394d54;stroke-width:1.56" transform="matrix(1, 0, 0, 1, 0, 22.865999221801758)"/>
        </g>
      </g>
      <g id="use36" transform="matrix(1, 0, 0, 1, 0, 45.731998443603516)">
        <g transform="translate(0,-22.866)">
          <path d="m 123.85901,3.8110794 19.81751,0 0,19.8169706 -19.81751,0 z" style="fill:#00acd3"/>
          <path d="m 123.85901,26.676485 19.81751,0 0,19.818043 -19.81751,0 z" style="fill:#20c2ef"/>
          <path d="m 126.29235,21.976904 0,-16.5157492 m 2.97185,16.5157492 0,-16.5157492 m 3.00184,16.5157492 0,-16.5157492 m 3.00344,16.5157492 0,-16.5157492 m 3.00292,16.5157492 0,-16.5157492 m 2.97131,16.5157492 0,-16.5157492" style="stroke:#394d54;stroke-width:1.56"/>
          <path d="m 126.29235,21.976904 0,-16.5157492 m 2.97185,16.5157492 0,-16.5157492 m 3.00184,16.5157492 0,-16.5157492 m 3.00344,16.5157492 0,-16.5157492 m 3.00292,16.5157492 0,-16.5157492 m 2.97131,16.5157492 0,-16.5157492" style="stroke:#394d54;stroke-width:1.56" transform="matrix(1, 0, 0, 1, 0, 22.865999221801758)"/>
        </g>
        <g transform="matrix(1, 0, 0, -1, 22.865999221801758, 27.438650131225586)">
          <path d="m 123.85901,3.8110794 19.81751,0 0,19.8169706 -19.81751,0 z" style="fill:#00acd3"/>
          <path d="m 123.85901,26.676485 19.81751,0 0,19.818043 -19.81751,0 z" style="fill:#20c2ef"/>
          <path d="m 126.29235,21.976904 0,-16.5157492 m 2.97185,16.5157492 0,-16.5157492 m 3.00184,16.5157492 0,-16.5157492 m 3.00344,16.5157492 0,-16.5157492 m 3.00292,16.5157492 0,-16.5157492 m 2.97131,16.5157492 0,-16.5157492" style="stroke:#394d54;stroke-width:1.56"/>
          <path d="m 126.29235,21.976904 0,-16.5157492 m 2.97185,16.5157492 0,-16.5157492 m 3.00184,16.5157492 0,-16.5157492 m 3.00344,16.5157492 0,-16.5157492 m 3.00292,16.5157492 0,-16.5157492 m 2.97131,16.5157492 0,-16.5157492" style="stroke:#394d54;stroke-width:1.56" transform="matrix(1, 0, 0, 1, 0, 22.865999221801758)"/>
        </g>
      </g>
    </g>
    <path d="M 221.691 54.21 C 223.225 42.295 214.308 32.935 208.777 28.492 C 202.405 35.859 201.414 55.169 211.412 63.299 C 205.833 68.255 194.075 72.747 182.037 72.747 L 34.121 72.747 C 32.951 85.314 34.121 145.83 34.121 145.83 L 251.121 145.83 L 250.135 54.406 C 240.736 48.983 228.651 50.712 221.691 54.21" clip-path="url(#clipPath8)" id="path38" style="fill:#17b5eb"/>
    <path d="M 34.121 88.83 L 34.121 145.83 L 251.121 145.83 L 251.121 88.83" clip-path="url(#clipPath8)" id="path40" style="fill-opacity:0.17"/>
    <path d="M 111.359 140.72 C 97.819 134.295 90.387 125.561 86.252 116.026 L 45.121 117.83 L 66.121 145.83 L 111.359 140.72" clip-path="url(#clipPath8)" id="path42" style="fill:#d4edf1"/>
    <path d="M 222.621 53.768 L 222.621 53.799 C 201.76 80.688 171.838 104.178 139.715 116.518 C 111.06 127.525 86.077 127.578 68.84 118.737 C 66.984 117.688 65.164 116.525 63.34 115.424 C 50.703 106.592 43.586 91.983 44.184 72.737 L 34.121 72.737 L 34.121 145.83 L 251.121 145.83 L 251.121 49.83 L 226.121 49.83 L 222.621 53.768 Z" clip-path="url(#clipPath8)" id="path44" style="fill-opacity:0.085"/>
    <path d="M 45.746 116.862 C 59.911 117.637 75.029 117.776 88.215 113.643" id="path46" style="fill:none;stroke:#394d54;stroke-width:3.4;stroke-linecap:round"/>
    <path d="M 102.292 106.79 C 102.292 109.808 99.844 112.256 96.825 112.256 C 93.806 112.256 91.357 109.808 91.357 106.79 C 91.357 103.771 93.806 101.322 96.825 101.322 C 99.844 101.322 102.292 103.771 102.292 106.79 Z" id="path48" style="fill:#d4edf1"/>
    <path d="M 98.243 103.138 C 97.765 103.414 97.443 103.931 97.443 104.522 C 97.443 105.405 98.158 106.119 99.041 106.119 C 99.645 106.119 100.171 105.783 100.442 105.287 C 100.634 105.749 100.741 106.257 100.741 106.79 C 100.741 108.952 98.988 110.704 96.825 110.704 C 94.663 110.704 92.909 108.952 92.909 106.79 C 92.909 104.626 94.663 102.873 96.825 102.873 C 97.325 102.873 97.802 102.967 98.243 103.138 Z" id="path50" style="fill:#394d54"/>
    <path d="M 0.121 89.993 L 254.449 89.993 C 248.911 88.588 236.928 86.69 238.904 79.433 C 228.835 91.085 204.551 87.607 198.423 81.862 C 191.598 91.76 151.868 87.998 149.097 80.287 C 140.542 90.327 114.03 90.327 105.474 80.287 C 102.702 87.998 62.972 91.76 56.147 81.862 C 50.019 87.607 25.737 91.085 15.667 79.433 C 17.643 86.69 5.66 88.588 0.121 89.993" id="path52" style="fill:#394d54"/>
  </g>
</svg>