<?xml version="1.0" encoding="utf-8"?>
<svg viewBox="0 0 300 300" xmlns="http://www.w3.org/2000/svg">
  <path fill="#f05133" d="M 282.096 138.396 L 162.237 18.551 C 155.341 11.649 144.146 11.649 137.242 18.551 L 112.354 43.441 L 143.923 75.011 C 151.262 72.531 159.674 74.194 165.521 80.041 C 171.398 85.928 173.048 94.411 170.509 101.775 L 200.935 132.202 C 208.296 129.665 216.79 131.303 222.666 137.192 C 230.885 145.407 230.885 158.718 222.666 166.937 C 214.448 175.157 201.135 175.157 192.912 166.937 C 186.734 160.752 185.204 151.673 188.333 144.061 L 159.957 115.685 L 159.955 190.356 C 161.96 191.347 163.851 192.672 165.519 194.334 C 173.735 202.548 173.735 215.858 165.519 224.086 C 157.302 232.301 143.983 232.301 135.774 224.086 C 127.557 215.858 127.557 202.548 135.774 194.334 C 137.805 192.305 140.154 190.773 142.663 189.744 L 142.663 114.378 C 140.154 113.354 137.807 111.832 135.774 109.789 C 129.55 103.57 128.052 94.436 131.242 86.793 L 100.121 55.668 L 17.943 137.842 C 11.04 144.749 11.04 155.945 17.943 162.848 L 137.796 282.692 C 144.696 289.595 155.888 289.595 162.796 282.692 L 282.093 163.414 C 288.997 156.508 288.997 145.309 282.093 138.406" style=""/>
</svg>