<?xml version="1.0" encoding="utf-8"?>
<svg viewBox="0 0 300 300" xmlns="http://www.w3.org/2000/svg">
  <path fill-rule="evenodd" clip-rule="evenodd" d="M 150.007 16.092 C 73.8 16.092 12.076 77.817 12.076 154.023 C 12.076 215.058 51.558 266.61 106.387 284.885 C 113.283 286.092 115.869 281.954 115.869 278.333 C 115.869 275.058 115.696 264.195 115.696 252.644 C 81.041 259.023 72.075 244.196 69.318 236.437 C 67.765 232.471 61.041 220.23 55.179 216.954 C 50.352 214.368 43.456 207.988 55.007 207.817 C 65.869 207.644 73.627 217.816 76.214 221.954 C 88.627 242.816 108.456 236.954 116.386 233.333 C 117.593 224.368 121.214 218.333 125.179 214.885 C 94.49 211.437 62.421 199.541 62.421 146.782 C 62.421 131.782 67.765 119.368 76.558 109.713 C 75.18 106.265 70.352 92.126 77.938 73.161 C 77.938 73.161 89.49 69.54 115.869 87.3 C 126.904 84.195 138.627 82.644 150.351 82.644 C 162.075 82.644 173.8 84.195 184.835 87.3 C 211.214 69.368 222.766 73.161 222.766 73.161 C 230.352 92.126 225.524 106.265 224.145 109.713 C 232.937 119.368 238.283 131.61 238.283 146.782 C 238.283 199.713 206.042 211.437 175.351 214.885 C 180.351 219.195 184.662 227.472 184.662 240.402 C 184.662 258.851 184.49 273.679 184.49 278.333 C 184.49 281.954 187.076 286.265 193.973 284.885 C 248.454 266.61 287.938 214.885 287.938 154.023 C 287.938 77.817 226.214 16.092 150.007 16.092 Z" style="fill: rgb(205, 217, 228);"/>
</svg>