<?xml version="1.0" encoding="utf-8"?>
<svg viewBox="154 141 185 189" xmlns="http://www.w3.org/2000/svg">
  <g transform="matrix(1, 0, 0, 1, 142.222794, 9.392072)">
    <path class="cls-2" d="M 179.429 215.038 L 179.219 214.478 L 158.019 159.178 C 157.59 158.092 156.826 157.171 155.839 156.548 C 152.672 154.521 148.447 156.128 147.429 159.748 L 133.119 203.558 L 75.169 203.558 L 60.859 159.748 C 59.833 156.135 55.617 154.531 52.449 156.548 C 51.461 157.171 50.698 158.092 50.269 159.178 L 29.079 214.488 L 28.859 215.038 C 22.592 231.417 27.917 249.967 41.919 260.528 L 41.999 260.588 L 42.179 260.728 L 74.429 284.898 L 90.429 296.988 L 100.149 304.338 C 102.492 306.108 105.726 306.108 108.069 304.338 L 117.789 296.988 L 133.789 284.898 L 166.269 260.588 L 166.359 260.518 C 180.36 249.962 185.689 231.417 179.429 215.038 Z" style="fill: rgb(226, 67, 41);"/>
    <path class="cls-3" d="M 179.429 215.038 L 179.219 214.478 C 168.89 216.597 159.157 220.975 150.719 227.298 L 104.169 262.498 L 133.809 284.898 L 166.289 260.588 L 166.379 260.518 C 180.372 249.956 185.693 231.412 179.429 215.038 Z" style="fill: rgb(252, 109, 38);"/>
    <path class="cls-4" d="M 74.429 284.898 L 90.429 296.988 L 100.149 304.338 C 102.492 306.108 105.726 306.108 108.069 304.338 L 117.789 296.988 L 133.789 284.898 L 104.149 262.498 L 74.429 284.898 Z" style="fill: rgb(252, 163, 38);"/>
    <path class="cls-3" d="M 57.569 227.298 C 49.133 220.979 39.404 216.604 29.079 214.488 L 28.859 215.038 C 22.592 231.417 27.917 249.967 41.919 260.528 L 41.999 260.588 L 42.179 260.728 L 74.429 284.898 L 104.089 262.498 L 57.569 227.298 Z" style="fill: rgb(252, 109, 38);"/>
  </g>
</svg>