<?xml version="1.0" encoding="utf-8"?>
<svg viewBox="0 0 360 500" xmlns="http://www.w3.org/2000/svg">
  <path d="M 39.257 7 L 61.068 7 L 61.068 28.623 L 81.174 28.623 L 81.174 7 L 102.986 7 L 102.986 72.437 L 81.174 72.437 L 81.174 50.624 L 61.258 50.624 L 61.258 72.437 L 39.257 72.437 M 131.815 28.813 L 112.564 28.813 L 112.564 7 L 172.975 7 L 172.975 28.813 L 153.628 28.813 L 153.628 72.437 L 131.815 72.437 M 182.554 7 L 205.408 7 L 219.443 30.046 L 233.48 7 L 256.335 7 L 256.335 72.437 L 234.523 72.437 L 234.523 40.003 L 219.254 63.522 L 203.985 40.003 L 203.985 72.437 L 182.554 72.437 M 267.146 7 L 288.958 7 L 288.958 50.814 L 319.875 50.814 L 319.875 72.437 L 267.146 72.437" style=""/>
  <path fill="#e44d26" d="M 38.498 453.675 L 7.202 102.404 L 351.265 102.404 L 319.969 453.486 L 178.949 492.557" style=""/>
  <path fill="#f16529" d="M 179.234 462.684 L 179.234 131.235 L 319.875 131.235 L 293.036 430.915" style=""/>
  <path fill="#ebebeb" d="M 71.122 174.195 L 179.234 174.195 L 179.234 217.251 L 118.35 217.251 L 122.333 261.349 L 179.234 261.349 L 179.234 304.309 L 82.881 304.309 M 84.778 325.932 L 128.022 325.932 L 131.058 360.358 L 179.234 373.254 L 179.234 418.207 L 90.847 393.55" style=""/>
  <path fill="#fff" d="M 286.967 174.195 L 179.044 174.195 L 179.044 217.251 L 282.984 217.251 M 279.095 261.349 L 179.044 261.349 L 179.044 304.404 L 232.152 304.404 L 227.125 360.358 L 179.044 373.254 L 179.044 418.017 L 267.24 393.55" style=""/>
</svg>