<?xml version="1.0" encoding="utf-8"?>
<svg viewBox="0 0 300 300" xmlns="http://www.w3.org/2000/svg">
  <path d="M 68.17 6.911 L 81.066 6.911 L 81.066 19.696 L 92.954 19.696 L 92.954 6.911 L 105.85 6.911 L 105.85 45.602 L 92.954 45.602 L 92.954 32.705 L 81.178 32.705 L 81.178 45.602 L 68.17 45.602 M 122.895 19.808 L 111.513 19.808 L 111.513 6.911 L 147.232 6.911 L 147.232 19.808 L 135.793 19.808 L 135.793 45.602 L 122.895 45.602 M 152.896 6.911 L 166.408 6.911 L 174.706 20.537 L 183.006 6.911 L 196.519 6.911 L 196.519 45.602 L 183.622 45.602 L 183.622 26.425 L 174.595 40.33 L 165.566 26.425 L 165.566 45.602 L 152.896 45.602 M 202.911 6.911 L 215.807 6.911 L 215.807 32.816 L 234.087 32.816 L 234.087 45.602 L 202.911 45.602" style=""/>
  <path fill="#e44d26" d="M 67.721 271.011 L 49.218 63.32 L 252.647 63.32 L 234.142 270.899 L 150.764 294" style=""/>
  <path fill="#f16529" d="M 150.933 276.337 L 150.933 80.366 L 234.087 80.366 L 218.219 257.553" style=""/>
  <path fill="#ebebeb" d="M 87.011 105.767 L 150.933 105.767 L 150.933 131.223 L 114.935 131.223 L 117.289 157.296 L 150.933 157.296 L 150.933 182.696 L 93.963 182.696 M 95.085 195.482 L 120.653 195.482 L 122.448 215.837 L 150.933 223.461 L 150.933 250.04 L 98.673 235.461" style=""/>
  <path fill="#fff" d="M 214.63 105.767 L 150.82 105.767 L 150.82 131.223 L 212.275 131.223 M 209.976 157.296 L 150.82 157.296 L 150.82 182.753 L 182.221 182.753 L 179.248 215.837 L 150.82 223.461 L 150.82 249.927 L 202.966 235.461" style=""/>
</svg>