<?xml version="1.0" encoding="utf-8"?>
<svg viewBox="0 0 300 300" xmlns="http://www.w3.org/2000/svg">
  <rect width="300" height="300" fill="#f7df1e" style=""/>
  <path d="M 201.524 234.376 C 207.567 244.242 215.428 251.495 229.333 251.495 C 241.013 251.495 248.476 245.657 248.476 237.589 C 248.476 227.923 240.81 224.5 227.952 218.875 L 220.905 215.852 C 200.562 207.185 187.047 196.327 187.047 173.376 C 187.047 152.233 203.158 136.137 228.333 136.137 C 246.257 136.137 259.143 142.376 268.429 158.709 L 246.476 172.804 C 241.643 164.138 236.428 160.723 228.333 160.723 C 220.076 160.723 214.843 165.962 214.843 172.804 C 214.843 181.261 220.082 184.685 232.177 189.923 L 239.223 192.943 C 263.176 203.214 276.7 213.684 276.7 237.227 C 276.7 262.609 256.762 276.513 229.985 276.513 C 203.805 276.513 186.891 264.037 178.615 247.686 L 201.524 234.376 Z M 101.938 236.819 C 106.367 244.675 110.395 251.318 120.081 251.318 C 129.343 251.318 135.186 247.695 135.186 233.604 L 135.186 137.747 L 163.376 137.747 L 163.376 233.986 C 163.376 263.175 146.263 276.462 121.28 276.462 C 98.71 276.462 85.638 264.78 78.991 250.712 L 101.938 236.819 Z" style=""/>
</svg>