<?xml version="1.0" encoding="utf-8"?>
<svg viewBox="0 0 300 300" xmlns="http://www.w3.org/2000/svg">
  <g transform="matrix(3.109909, 0, 0, 3.109909, -502.662933, -546.384705)" style="">
    <path class="st0" d="M 245.655 200.422 C 245.155 198.822 243.955 197.522 242.455 196.722 L 211.955 182.122 C 211.155 181.722 210.255 181.622 209.455 181.622 C 208.655 181.622 207.755 181.622 206.955 181.822 L 176.455 196.522 C 174.955 197.222 173.855 198.522 173.455 200.222 L 165.955 233.122 C 165.655 234.822 166.055 236.522 167.055 237.922 L 188.155 264.022 C 189.355 265.222 191.055 266.022 192.755 266.122 L 226.355 266.122 C 228.155 266.322 229.855 265.522 230.955 264.022 L 252.055 237.922 C 253.055 236.522 253.455 234.822 253.255 233.122 L 245.655 200.422 Z" style="fill: rgb(255, 255, 255); stroke: rgb(255, 255, 255); stroke-miterlimit: 10; stroke-width: 5px;"/>
    <path class="st1" d="M 245.655 200.422 C 245.155 198.822 243.955 197.522 242.455 196.722 L 211.955 182.122 C 211.155 181.722 210.255 181.622 209.455 181.622 C 208.655 181.622 207.755 181.622 206.955 181.822 L 176.455 196.522 C 174.955 197.222 173.855 198.522 173.455 200.222 L 165.955 233.122 C 165.655 234.822 166.055 236.522 167.055 237.922 L 188.155 264.022 C 189.355 265.222 191.055 266.022 192.755 266.122 L 226.355 266.122 C 228.155 266.322 229.855 265.522 230.955 264.022 L 252.055 237.922 C 253.055 236.522 253.455 234.822 253.255 233.122 L 245.655 200.422 Z" style="fill: rgb(50, 109, 230);"/>
    <path class="st2" d="M 240.955 231.822 C 240.855 231.822 240.755 231.822 240.755 231.722 C 240.755 231.622 240.555 231.622 240.355 231.622 C 239.955 231.522 239.555 231.522 239.155 231.522 C 238.955 231.522 238.755 231.522 238.555 231.422 L 238.455 231.422 C 237.355 231.322 236.155 231.122 235.055 230.822 C 234.755 230.722 234.455 230.422 234.355 230.122 C 234.455 230.122 234.355 230.122 234.355 230.122 L 233.555 229.922 C 233.955 227.022 233.755 224.022 233.155 221.122 C 232.455 218.222 231.255 215.422 229.655 212.922 L 230.255 212.322 L 230.255 212.222 C 230.255 211.922 230.355 211.522 230.555 211.322 C 231.455 210.522 232.355 209.922 233.355 209.322 C 233.555 209.222 233.755 209.122 233.955 209.022 C 234.355 208.822 234.655 208.622 235.055 208.422 C 235.155 208.322 235.255 208.322 235.355 208.222 C 235.455 208.122 235.355 208.122 235.355 208.022 C 236.255 207.322 236.455 206.122 235.755 205.222 C 235.455 204.822 234.855 204.522 234.355 204.522 C 233.855 204.522 233.355 204.722 232.955 205.022 L 232.855 205.122 C 232.755 205.222 232.655 205.322 232.555 205.322 C 232.255 205.622 231.955 205.922 231.755 206.222 C 231.655 206.422 231.455 206.522 231.355 206.622 C 230.655 207.422 229.755 208.222 228.855 208.822 C 228.655 208.922 228.455 209.022 228.255 209.022 C 228.155 209.022 227.955 209.022 227.855 208.922 L 227.755 208.922 L 226.955 209.422 C 226.155 208.622 225.255 207.822 224.455 207.022 C 220.755 204.122 216.155 202.322 211.455 201.822 L 211.355 201.022 L 211.355 201.122 C 211.055 200.922 210.955 200.622 210.855 200.322 C 210.855 199.222 210.855 198.122 211.055 196.922 L 211.055 196.822 C 211.055 196.622 211.155 196.422 211.155 196.222 C 211.255 195.822 211.255 195.422 211.355 195.022 L 211.355 194.422 C 211.455 193.422 210.655 192.422 209.655 192.322 C 209.055 192.222 208.455 192.522 207.955 193.022 C 207.555 193.422 207.355 193.922 207.355 194.422 L 207.355 194.922 C 207.355 195.322 207.455 195.722 207.555 196.122 C 207.655 196.322 207.655 196.522 207.655 196.722 L 207.655 196.822 C 207.855 197.922 207.855 199.022 207.855 200.222 C 207.755 200.522 207.655 200.822 207.355 201.022 L 207.355 201.222 L 207.255 202.022 C 206.155 202.122 205.055 202.322 203.855 202.522 C 199.155 203.522 194.855 206.022 191.555 209.522 L 190.955 209.122 L 190.855 209.122 C 190.755 209.122 190.655 209.222 190.455 209.222 C 190.255 209.222 190.055 209.122 189.855 209.022 C 188.955 208.322 188.055 207.522 187.355 206.722 C 187.255 206.522 187.055 206.422 186.955 206.322 C 186.655 206.022 186.455 205.722 186.155 205.422 C 186.055 205.322 185.955 205.322 185.855 205.222 C 185.755 205.122 185.755 205.122 185.755 205.122 C 185.355 204.822 184.855 204.622 184.355 204.622 C 183.755 204.622 183.255 204.822 182.955 205.322 C 182.355 206.222 182.555 207.422 183.355 208.122 C 183.455 208.122 183.455 208.222 183.455 208.222 C 183.455 208.222 183.655 208.422 183.755 208.422 C 184.055 208.622 184.455 208.822 184.855 209.022 C 185.055 209.122 185.255 209.222 185.455 209.322 C 186.455 209.922 187.455 210.522 188.255 211.322 C 188.455 211.522 188.655 211.922 188.555 212.222 L 188.555 212.122 L 189.155 212.722 C 189.055 212.922 188.955 213.022 188.855 213.222 C 185.755 218.122 184.455 223.922 185.355 229.622 L 184.555 229.822 C 184.555 229.922 184.455 229.922 184.455 229.922 C 184.355 230.222 184.055 230.422 183.755 230.622 C 182.655 230.922 181.555 231.122 180.355 231.222 C 180.155 231.222 179.955 231.222 179.755 231.322 C 179.355 231.322 178.955 231.422 178.555 231.422 C 178.455 231.422 178.355 231.522 178.155 231.522 C 178.055 231.522 178.055 231.522 177.955 231.622 C 176.855 231.822 176.155 232.822 176.355 233.922 C 176.355 233.922 176.355 233.922 176.355 233.922 C 176.555 234.822 177.455 235.422 178.355 235.322 C 178.555 235.322 178.655 235.322 178.855 235.222 C 178.955 235.222 178.955 235.222 178.955 235.122 C 178.955 235.022 179.255 235.122 179.355 235.122 C 179.755 235.022 180.155 234.822 180.455 234.722 C 180.655 234.622 180.855 234.522 181.055 234.522 L 181.155 234.522 C 182.255 234.122 183.255 233.822 184.455 233.622 L 184.555 233.622 C 184.855 233.622 185.155 233.722 185.355 233.922 C 185.455 233.922 185.455 234.022 185.455 234.022 L 186.355 233.922 C 187.855 238.522 190.655 242.622 194.555 245.622 C 195.455 246.322 196.255 246.922 197.255 247.422 L 196.755 248.122 C 196.755 248.222 196.855 248.222 196.855 248.222 C 197.055 248.522 197.055 248.922 196.955 249.222 C 196.555 250.222 195.955 251.222 195.355 252.122 L 195.355 252.222 C 195.255 252.422 195.155 252.522 194.955 252.722 C 194.755 252.922 194.555 253.322 194.255 253.722 C 194.155 253.822 194.155 253.922 194.055 254.022 C 194.055 254.022 194.055 254.122 193.955 254.122 C 193.455 255.122 193.855 256.322 194.755 256.822 C 194.955 256.922 195.255 257.022 195.455 257.022 C 196.255 257.022 196.955 256.522 197.355 255.822 C 197.355 255.822 197.355 255.722 197.455 255.722 C 197.455 255.622 197.555 255.522 197.655 255.422 C 197.755 255.022 197.955 254.722 198.055 254.322 L 198.255 253.722 C 198.555 252.622 199.055 251.622 199.555 250.622 C 199.755 250.322 200.055 250.122 200.355 250.022 C 200.455 250.022 200.455 250.022 200.455 249.922 L 200.855 249.122 C 203.655 250.222 206.555 250.722 209.555 250.722 C 211.355 250.722 213.155 250.522 214.955 250.022 C 216.055 249.822 217.155 249.422 218.155 249.122 L 218.555 249.822 C 218.655 249.822 218.655 249.822 218.655 249.922 C 218.955 250.022 219.255 250.222 219.455 250.522 C 219.955 251.522 220.455 252.522 220.755 253.622 L 220.755 253.722 L 220.955 254.322 C 221.055 254.722 221.155 255.122 221.355 255.422 C 221.455 255.522 221.455 255.622 221.555 255.722 C 221.555 255.722 221.555 255.822 221.655 255.822 C 222.055 256.522 222.755 257.022 223.555 257.022 C 223.855 257.022 224.055 256.922 224.355 256.822 C 224.755 256.622 225.155 256.222 225.255 255.722 C 225.355 255.222 225.355 254.722 225.155 254.222 C 225.155 254.122 225.055 254.122 225.055 254.122 C 225.055 254.022 224.955 253.922 224.855 253.822 C 224.655 253.422 224.455 253.122 224.155 252.822 C 224.055 252.622 223.955 252.522 223.755 252.322 L 223.755 252.122 C 223.055 251.222 222.555 250.222 222.155 249.222 C 222.055 248.922 222.055 248.522 222.255 248.222 C 222.255 248.122 222.355 248.122 222.355 248.122 L 222.055 247.322 C 227.155 244.222 231.055 239.422 232.855 233.722 L 233.655 233.822 C 233.755 233.822 233.755 233.722 233.755 233.722 C 233.955 233.522 234.255 233.422 234.555 233.422 L 234.655 233.422 C 235.755 233.622 236.855 233.922 237.855 234.322 L 237.955 234.322 C 238.155 234.422 238.355 234.522 238.555 234.522 C 238.955 234.722 239.255 234.922 239.655 235.022 C 239.755 235.022 239.855 235.122 240.055 235.122 C 240.155 235.122 240.155 235.122 240.255 235.222 C 240.455 235.322 240.555 235.322 240.755 235.322 C 241.655 235.322 242.455 234.722 242.755 233.922 C 242.655 232.822 241.855 232.022 240.955 231.822 Z M 212.055 228.722 L 209.355 230.022 L 206.655 228.722 L 205.955 225.822 L 207.855 223.422 L 210.855 223.422 L 212.755 225.822 L 212.055 228.722 Z M 228.355 222.222 C 228.855 224.322 228.955 226.422 228.755 228.522 L 219.255 225.822 C 218.355 225.622 217.855 224.722 218.055 223.822 C 218.155 223.522 218.255 223.322 218.455 223.122 L 225.955 216.322 C 227.055 218.122 227.855 220.122 228.355 222.222 Z M 222.955 212.622 L 214.755 218.422 C 214.055 218.822 213.055 218.722 212.555 218.022 C 212.355 217.822 212.255 217.622 212.255 217.322 L 211.655 207.222 C 216.055 207.722 219.955 209.622 222.955 212.622 Z M 204.855 207.522 L 206.855 207.122 L 206.355 217.122 C 206.355 218.022 205.555 218.722 204.655 218.722 C 204.355 218.722 204.155 218.622 203.855 218.522 L 195.555 212.622 C 198.155 210.122 201.355 208.322 204.855 207.522 Z M 192.655 216.322 L 200.055 222.922 C 200.755 223.522 200.855 224.522 200.255 225.222 C 200.055 225.522 199.855 225.622 199.455 225.722 L 189.755 228.522 C 189.455 224.322 190.455 220.022 192.655 216.322 Z M 190.955 233.222 L 200.855 231.522 C 201.655 231.522 202.455 232.022 202.555 232.822 C 202.655 233.122 202.655 233.522 202.455 233.822 L 198.655 243.022 C 195.155 240.722 192.355 237.222 190.955 233.222 Z M 213.655 245.622 C 212.255 245.922 210.855 246.122 209.355 246.122 C 207.255 246.122 205.055 245.722 203.055 245.122 L 207.955 236.222 C 208.455 235.622 209.255 235.422 209.955 235.822 C 210.255 236.022 210.455 236.222 210.755 236.522 L 215.555 245.222 C 214.955 245.322 214.355 245.422 213.655 245.622 Z M 225.855 236.922 C 224.355 239.322 222.255 241.422 219.855 242.922 L 215.955 233.522 C 215.755 232.722 216.155 231.922 216.855 231.622 C 217.155 231.522 217.455 231.422 217.755 231.422 L 227.755 233.122 C 227.255 234.522 226.655 235.822 225.855 236.922 Z" style="fill: rgb(255, 255, 255);"/>
  </g>
</svg>