<?xml version="1.0" encoding="utf-8"?>
<svg viewBox="0 0 300 300" xmlns="http://www.w3.org/2000/svg">
  <path d="M 149.128 11.098 L 156.619 25.166 C 158.302 27.762 160.126 30.059 162.274 32.2 C 168.545 38.471 174.501 45.039 179.851 52.072 C 192.54 68.735 201.101 87.242 207.213 107.255 C 210.879 119.481 212.87 132.022 213.019 144.703 C 213.633 182.617 200.636 215.172 174.43 242.229 C 170.15 246.508 165.572 250.472 160.661 253.998 C 158.065 253.998 156.838 252.007 155.768 250.174 C 153.776 246.816 152.558 242.983 151.943 239.167 C 151.022 234.58 150.417 229.994 150.715 225.257 L 150.715 223.118 C 150.505 222.662 148.217 12.177 149.128 11.098 Z" fill="#599636" style=""/>
  <path d="M 149.128 10.633 C 148.822 10.019 148.515 10.484 148.207 10.782 C 148.357 13.852 147.286 16.588 145.611 19.201 C 143.769 21.798 141.331 23.788 138.886 25.929 C 125.291 37.698 114.591 51.915 106.023 67.815 C 94.621 89.214 88.746 112.148 87.08 136.293 C 86.317 145.002 89.833 175.732 92.578 184.599 C 100.067 208.138 113.522 227.863 130.947 244.983 C 135.228 249.103 139.806 252.928 144.542 256.603 C 145.919 256.603 146.067 255.374 146.384 254.462 C 146.988 252.51 147.446 250.518 147.759 248.499 L 150.829 225.574 L 149.128 10.633 Z" fill="#6cac48" style=""/>
  <path d="M 156.619 263.312 C 156.925 259.804 158.609 256.893 160.442 253.989 C 158.6 253.226 157.231 251.709 156.162 250.017 C 155.241 248.491 154.478 246.657 153.882 244.973 C 151.743 238.553 151.285 231.818 150.672 225.257 L 150.672 221.285 C 149.91 221.899 149.752 227.091 149.752 227.863 C 149.305 234.796 148.384 241.691 146.996 248.499 C 146.542 251.253 146.235 253.998 144.542 256.445 C 144.542 256.752 144.542 257.058 144.691 257.515 C 147.444 265.618 148.2 273.871 148.664 282.282 L 148.664 285.351 C 148.664 289.017 148.515 288.247 151.557 289.474 C 152.786 289.929 154.154 290.087 155.381 291 C 156.303 291 156.451 290.237 156.451 289.622 L 155.995 284.579 L 155.995 270.511 C 155.846 268.056 156.303 265.618 156.609 263.321 L 156.619 263.312 Z" fill="#c2bfbf" style=""/>
</svg>