<?xml version="1.0" encoding="utf-8"?>
<svg viewBox="0 0 300 300" xmlns="http://www.w3.org/2000/svg">
  <g transform="matrix(1, 0, 0, 1, -1, 2)">
    <path d="M 150.697 4 L 151.366 4 C 154.797 5.639 158.136 7.451 161.381 9.44 C 198.671 30.883 235.96 52.335 273.261 73.798 C 276.207 75.374 277.897 78.589 277.526 81.918 C 277.444 127.141 277.526 172.354 277.475 217.557 C 276.99 219.711 275.671 221.596 273.806 222.781 C 234.147 245.614 194.487 268.438 154.829 291.24 C 152.861 292.743 150.181 292.889 148.058 291.621 C 108.347 268.859 68.688 246.047 29.06 223.203 C 26.423 221.956 24.794 219.257 24.938 216.341 C 24.938 171.128 24.938 125.915 24.938 80.712 C 24.733 77.817 26.309 75.086 28.926 73.808 C 66.164 52.387 103.412 30.955 140.66 9.513 C 143.978 7.617 147.234 5.607 150.697 4" style="fill: rgb(1, 150, 57);"/>
    <path d="M 76.704 91.974 C 76.704 129.264 76.704 166.563 76.704 203.864 C 76.602 208.036 78.188 212.075 81.104 215.063 C 86.792 220.689 95.633 221.576 102.33 217.186 C 106.741 214.188 109.388 209.2 109.388 203.864 C 109.388 176.867 109.337 149.872 109.388 122.875 C 133.994 152.344 158.661 181.772 183.38 211.158 C 190.355 218.227 200.453 221.267 210.17 219.215 C 217.104 217.856 222.328 212.116 223.06 205.09 C 223.111 167.027 223.111 128.965 223.06 90.913 C 221.968 78.414 207.749 71.779 197.476 78.981 C 193.519 81.743 190.995 86.111 190.582 90.913 C 190.582 118.342 190.418 145.74 190.582 173.158 C 166.41 144.658 142.536 115.91 118.456 87.307 C 111.985 79.022 101.547 74.87 91.16 76.467 C 83.176 77.353 77.035 83.947 76.704 91.974 Z" style="fill: rgb(255, 255, 255);"/>
  </g>
</svg>