<?xml version="1.0" encoding="utf-8"?>
<svg viewBox="0 0 300 300" xmlns="http://www.w3.org/2000/svg" xmlns:xlink="http://www.w3.org/1999/xlink">
  <defs>
    <linearGradient id="linearGradient1478" gradientUnits="userSpaceOnUse" gradientTransform="matrix(0.562541, 0, 0, 0.567972, 124.006164, 237.961936)" x1="26.648937" y1="20.603781" x2="135.66525" y2="114.39767" xlink:href="#linearGradient4689"/>
    <linearGradient id="linearGradient4689">
      <stop style="stop-color:#5a9fd4;stop-opacity:1;" offset="0" id="stop4691"/>
      <stop style="stop-color:#306998;stop-opacity:1;" offset="1" id="stop4693"/>
    </linearGradient>
    <linearGradient id="linearGradient1475" gradientUnits="userSpaceOnUse" gradientTransform="matrix(0.562541, 0, 0, 0.567972, 124.006164, 237.961936)" x1="150.96111" y1="192.35176" x2="112.03144" y2="137.27299" xlink:href="#linearGradient4671"/>
    <linearGradient id="linearGradient4671">
      <stop style="stop-color:#ffd43b;stop-opacity:1;" offset="0" id="stop4673"/>
      <stop style="stop-color:#ffe873;stop-opacity:1" offset="1" id="stop4675"/>
    </linearGradient>
  </defs>
  <g transform="matrix(2.28881, 0, 0, 2.28881, -296.889252, -551.658569)" style="">
    <path style="fill:url(#linearGradient1478);fill-opacity:1" d="M 193.916 249.665 C 189.332 249.687 184.955 250.077 181.104 250.759 C 169.757 252.763 167.697 256.959 167.697 264.696 L 167.697 274.915 L 194.51 274.915 L 194.51 278.321 L 167.697 278.321 L 157.635 278.321 C 149.842 278.321 143.019 283.005 140.885 291.915 C 138.423 302.128 138.314 308.501 140.885 319.165 C 142.791 327.103 147.342 332.759 155.135 332.759 L 164.354 332.759 L 164.354 320.509 C 164.354 311.659 172.011 303.853 181.104 303.853 L 207.885 303.853 C 215.34 303.853 221.291 297.715 221.291 290.228 L 221.291 264.696 C 221.291 257.43 215.161 251.972 207.885 250.759 C 203.279 249.992 198.5 249.644 193.916 249.665 Z M 179.416 257.884 C 182.186 257.884 184.447 260.183 184.447 263.009 C 184.447 265.825 182.186 268.103 179.416 268.103 C 176.637 268.103 174.385 265.825 174.385 263.009 C 174.385 260.183 176.637 257.884 179.416 257.884 Z" id="path1948"/>
    <path style="fill:url(#linearGradient1475);fill-opacity:1" d="M 224.635 278.321 L 224.635 290.228 C 224.635 299.458 216.809 307.228 207.885 307.228 L 181.104 307.228 C 173.768 307.228 167.697 313.506 167.697 320.853 L 167.697 346.384 C 167.697 353.65 174.016 357.924 181.104 360.009 C 189.591 362.505 197.73 362.956 207.885 360.009 C 214.635 358.055 221.291 354.121 221.291 346.384 L 221.291 336.165 L 194.51 336.165 L 194.51 332.759 L 221.291 332.759 L 234.697 332.759 C 242.49 332.759 245.394 327.324 248.104 319.165 C 250.903 310.766 250.784 302.689 248.104 291.915 C 246.178 284.158 242.5 278.321 234.697 278.321 L 224.635 278.321 Z M 209.572 342.978 C 212.352 342.978 214.604 345.255 214.604 348.071 C 214.604 350.898 212.352 353.196 209.572 353.196 C 206.803 353.196 204.541 350.898 204.541 348.071 C 204.541 345.255 206.803 342.978 209.572 342.978 Z" id="path1950"/>
  </g>
</svg>