<?xml version="1.0" encoding="utf-8"?>
<svg viewBox="0 0 300 300" xmlns="http://www.w3.org/2000/svg">
  <path fill="#CD6799" d="M 252.687 165.848 C 242.809 165.9 234.225 168.279 227.037 171.796 C 224.4 166.573 221.761 161.919 221.297 158.506 C 220.779 154.523 220.159 152.092 220.779 147.335 C 221.399 142.577 224.192 135.803 224.14 135.285 C 224.088 134.769 223.52 132.338 217.832 132.286 C 212.143 132.234 207.229 133.372 206.661 134.871 C 206.092 136.371 205.006 139.784 204.282 143.301 C 203.3 148.473 192.905 166.935 186.958 176.605 C 185.044 172.83 183.39 169.52 183.028 166.883 C 182.511 162.901 181.889 160.47 182.511 155.713 C 183.131 150.954 185.924 144.18 185.872 143.663 C 185.82 143.146 185.252 140.715 179.563 140.664 C 173.874 140.612 168.961 141.749 168.393 143.249 C 167.823 144.749 167.203 148.265 166.014 151.678 C 164.824 155.093 151.017 185.914 147.397 193.877 C 145.534 197.963 143.932 201.221 142.795 203.444 C 142.795 203.444 142.795 203.444 142.795 203.444 C 142.795 203.444 142.743 203.6 142.587 203.858 C 141.605 205.772 141.036 206.807 141.036 206.807 C 141.036 206.807 141.036 206.807 141.036 206.857 C 140.26 208.254 139.432 209.547 139.018 209.547 C 138.708 209.547 138.14 205.823 139.122 200.755 C 141.191 190.05 146.104 173.399 146.052 172.83 C 146.052 172.52 146.983 169.624 142.845 168.123 C 138.812 166.624 137.364 169.107 137.002 169.107 C 136.641 169.107 136.381 169.986 136.381 169.986 C 136.381 169.986 140.881 151.265 127.797 151.265 C 119.626 151.265 108.352 160.211 102.767 168.279 C 99.251 170.192 91.752 174.277 83.737 178.674 C 80.686 180.381 77.531 182.087 74.584 183.69 C 74.376 183.483 74.17 183.224 73.962 183.018 C 58.137 166.107 28.868 154.161 30.109 131.458 C 30.574 123.185 33.419 101.464 86.322 75.09 C 129.865 53.628 164.514 59.576 170.513 72.763 C 179.098 91.587 151.948 126.546 106.956 131.614 C 89.787 133.527 80.788 126.908 78.513 124.426 C 76.134 121.839 75.772 121.685 74.894 122.201 C 73.446 122.977 74.376 125.304 74.894 126.649 C 76.238 130.166 81.772 136.371 91.131 139.422 C 99.406 142.111 119.522 143.611 143.88 134.199 C 171.134 123.65 192.44 94.328 186.182 69.763 C 179.925 44.837 138.554 36.615 99.406 50.525 C 76.134 58.8 50.898 71.832 32.747 88.795 C 11.181 108.963 7.768 126.494 9.164 133.837 C 14.181 159.901 50.122 176.864 64.499 189.43 C 63.775 189.844 63.103 190.206 62.534 190.516 C 55.346 194.085 27.937 208.409 21.11 223.562 C 13.353 240.731 22.352 253.039 28.298 254.694 C 46.761 259.813 65.74 250.608 75.928 235.404 C 86.115 220.201 84.875 200.445 80.168 191.396 C 80.116 191.292 80.064 191.188 79.962 191.086 C 81.823 189.999 83.737 188.861 85.598 187.775 C 89.27 185.603 92.89 183.586 95.993 181.931 C 94.234 186.741 92.942 192.481 92.321 200.755 C 91.545 210.478 95.527 223.096 100.75 228.061 C 103.077 230.232 105.818 230.284 107.576 230.284 C 113.68 230.284 116.419 225.216 119.47 219.217 C 123.195 211.874 126.556 203.342 126.556 203.342 C 126.556 203.342 122.367 226.405 133.744 226.405 C 137.881 226.405 142.07 221.027 143.932 218.287 C 143.932 218.338 143.932 218.338 143.932 218.338 C 143.932 218.338 144.035 218.183 144.242 217.821 C 144.656 217.149 144.914 216.736 144.914 216.736 C 144.914 216.736 144.914 216.684 144.914 216.632 C 146.57 213.735 150.293 207.169 155.827 196.256 C 162.963 182.19 169.841 164.608 169.841 164.608 C 169.841 164.608 170.461 168.899 172.582 176.036 C 173.823 180.225 176.409 184.828 178.476 189.275 C 176.822 191.602 175.787 192.895 175.787 192.895 C 175.787 192.895 175.787 192.895 175.839 192.947 C 174.495 194.705 173.047 196.618 171.444 198.48 C 165.806 205.203 159.084 212.909 158.153 215.132 C 157.067 217.77 157.326 219.683 159.394 221.235 C 160.894 222.372 163.583 222.528 166.324 222.372 C 171.392 222.01 174.961 220.769 176.719 219.993 C 179.46 219.011 182.665 217.511 185.666 215.287 C 191.198 211.202 194.559 205.358 194.249 197.652 C 194.095 193.412 192.698 189.172 190.992 185.19 C 191.508 184.466 191.974 183.742 192.492 183.018 C 201.231 170.244 208.005 156.23 208.005 156.23 C 208.005 156.23 208.627 160.522 210.746 167.659 C 211.78 171.278 213.901 175.209 215.763 179.036 C 207.541 185.707 202.472 193.463 200.662 198.532 C 197.404 207.944 199.938 212.184 204.748 213.167 C 206.919 213.633 210.022 212.598 212.298 211.616 C 215.194 210.684 218.607 209.082 221.865 206.703 C 227.399 202.617 232.725 196.928 232.415 189.223 C 232.26 185.707 231.328 182.242 230.036 178.88 C 237.018 175.984 246.015 174.381 257.496 175.726 C 282.112 178.622 286.973 193.981 286.043 200.445 C 285.111 206.909 279.941 210.426 278.233 211.512 C 276.526 212.598 275.958 212.96 276.114 213.735 C 276.32 214.873 277.148 214.822 278.595 214.615 C 280.613 214.253 291.524 209.392 291.989 197.498 C 292.765 182.294 278.285 165.694 252.687 165.848 Z M 62.792 229.87 C 54.622 238.765 43.244 242.126 38.331 239.283 C 33.057 236.232 35.126 223.096 45.157 213.685 C 51.259 207.944 59.121 202.617 64.343 199.359 C 65.533 198.635 67.292 197.602 69.412 196.308 C 69.774 196.101 69.981 195.998 69.981 195.998 C 70.394 195.739 70.807 195.481 71.221 195.222 C 74.894 208.668 71.377 220.511 62.792 229.87 Z M 122.263 189.43 C 119.42 196.36 113.472 214.098 109.852 213.115 C 106.75 212.288 104.836 198.842 109.231 185.552 C 111.455 178.88 116.161 170.916 118.902 167.813 C 123.349 162.849 128.262 161.195 129.451 163.211 C 130.951 165.848 124.022 185.086 122.263 189.43 Z M 171.34 212.909 C 170.151 213.529 169.013 213.943 168.495 213.633 C 168.134 213.425 169.013 212.598 169.013 212.598 C 169.013 212.598 175.167 205.979 177.598 202.98 C 178.994 201.221 180.649 199.153 182.407 196.826 C 182.407 197.032 182.407 197.29 182.407 197.498 C 182.407 205.41 174.753 210.736 171.34 212.909 Z M 209.195 204.272 C 208.316 203.652 208.471 201.583 211.418 195.119 C 212.556 192.585 215.245 188.344 219.848 184.258 C 220.365 185.914 220.727 187.517 220.675 189.016 C 220.623 198.997 213.487 202.72 209.195 204.272 Z" style=""/>
  <g transform="matrix(1, 0, 0, 1, 89.16468, 123.023758)"/>
  <g transform="matrix(1, 0, 0, 1, 89.16468, 123.023758)"/>
  <g transform="matrix(1, 0, 0, 1, 89.16468, 123.023758)"/>
  <g transform="matrix(1, 0, 0, 1, 89.16468, 123.023758)"/>
  <g transform="matrix(1, 0, 0, 1, 89.16468, 123.023758)"/>
  <g transform="matrix(1, 0, 0, 1, 89.16468, 123.023758)"/>
</svg>