<?xml version="1.0" encoding="utf-8"?>
<!-- Generator: Adobe Illustrator 25.0.1, SVG Export Plug-In . SVG Version: 6.00 Build 0)  -->
<svg version="1.0" id="SVGLogo" xmlns="http://www.w3.org/2000/svg" xmlns:xlink="http://www.w3.org/1999/xlink" x="0px" y="0px"
	 viewBox="0 0 168.5 117" style="enable-background:new 0 0 168.5 117;" xml:space="preserve">
<style type="text/css">
	.st0{fill:#717074;}
</style>
<g>
	<path class="st0" d="M74.4,67.7l-6.1-17.1c-0.1-0.2-0.2-0.5-0.2-0.8c0-0.7,0.6-1.5,1.6-1.5c0.7,0,1.3,0.5,1.6,1.3l5,14.7l5.1-14.8
		c0.2-0.7,0.7-1.3,1.5-1.3h0.2c0.8,0,1.4,0.5,1.6,1.3l5,14.8l5.1-14.8c0.2-0.6,0.6-1.2,1.5-1.2s1.5,0.6,1.5,1.4
		c0,0.3-0.1,0.6-0.2,0.8l-6.2,17.1c-0.3,0.9-0.9,1.4-1.7,1.4h-0.1c-0.7,0-1.4-0.4-1.7-1.4l-5-14.5l-5,14.5c-0.3,0.9-0.8,1.4-1.7,1.4
		h-0.1C75.3,69.1,74.7,68.5,74.4,67.7"/>
	<path class="st0" d="M119,49.9c0-0.8,0.6-1.6,1.5-1.6c0.8,0,1.6,0.6,1.6,1.6v3.5c1.5-3.4,4.8-4.9,6.9-4.9c0.9,0,1.5,0.6,1.5,1.6
		c0,0.8-0.5,1.4-1.4,1.6c-3.9,0.4-7.1,3.4-7.1,9.2v6.8c0,0.8-0.6,1.6-1.5,1.6c-0.8,0-1.6-0.6-1.6-1.6L119,49.9"/>
	<path class="st0" d="M140.2,69.2c-5.4,0-9.8-4.2-9.8-10.4v-0.1c0-5.8,4-10.4,9.5-10.4c5.9,0,9.2,4.8,9.2,10.2
		c0,0.8-0.6,1.4-1.4,1.4h-14.4c0.4,4.3,3.5,6.8,7,6.8c2.4,0,4.3-0.9,5.7-2.3c0.2-0.2,0.5-0.3,0.8-0.3c0.7,0,1.3,0.6,1.3,1.3
		c0,0.3-0.1,0.7-0.4,0.9C145.8,68,143.6,69.2,140.2,69.2 M146.1,57.6c-0.3-3.7-2.4-6.8-6.3-6.8c-3.5,0-6.1,2.9-6.4,6.8H146.1
		L146.1,57.6z"/>
	<path class="st0" d="M97.7,63L97.7,63c0-4.3,3.5-6.6,8.6-6.6c2.6,0,4.4,0.3,6.2,0.8v-0.7c0-3.7-2.2-5.4-6-5.4c-2,0-3.2,0.2-4.7,0.9
		c-0.2,0.1-0.4,0.1-0.5,0.1c-0.7,0-1.4-0.6-1.4-1.3c0-0.7,0.3-1,0.8-1.3c2-0.8,3.5-1.2,6.1-1.2c2.8,0,5,0.7,6.5,2.2
		c1.4,1.4,2.1,3.4,2.1,5.9v11.1c0,0.8-0.6,1.5-1.5,1.5c-0.8,0-1.5-0.6-1.5-1.4v-2c-1.4,1.9-3.8,3.5-7.3,3.5
		C101.5,69.2,97.7,67.1,97.7,63 M112.5,61.4v-2c-1.5-0.4-3.5-0.8-6-0.8c-3.8,0-5.9,1.7-5.9,4.2v0.1c0,2.5,2.3,4,5,4
		C109.5,66.9,112.5,64.6,112.5,61.4"/>
	<path class="st0" d="M19.8,49.6c-0.6-1.5-2.3-2.1-3.8-1.5c-1.5,0.6-2.1,2.4-1.3,3.8l6.4,13.9c1,2.2,2.1,3.4,4.1,3.4
		c2.1,0,3-1.3,4.1-3.4c0,0,5.6-12.2,5.7-12.3c0.1-0.1,0.2-0.5,0.8-0.5c0.5,0,0.8,0.4,0.8,0.9v11.8c0,1.8,1,3.4,2.9,3.4
		c2,0,3-1.5,3-3.4v-9.6c0-1.9,1.4-3.1,3.1-3.1c1.8,0,3,1.3,3,3.1v9.7c0,1.8,1,3.4,2.9,3.4c2,0,3-1.5,3-3.4v-9.7
		c0-1.9,1.4-3.1,3.1-3.1c1.8,0,3,1.3,3,3.1v9.7c0,1.8,1,3.4,2.9,3.4c2,0,3-1.5,3-3.4v-11c0-4.1-3.2-6.9-7.2-6.9s-6.4,2.7-6.4,2.7
		c-1.4-1.7-3.1-2.7-6.2-2.7c-3.2,0-6.1,2.7-6.1,2.7c-1.3-1.7-3.6-2.7-5.3-2.7c-2.8,0-5.1,1.3-6.5,4.4l-4.1,9.6L19.8,49.6"/>
	<path class="st0" d="M149.2,50.8L149.2,50.8c0-1.4,1.2-2.5,2.5-2.5c1.4,0,2.5,1.2,2.5,2.5l0,0c0,1.4-1.2,2.5-2.5,2.5
		C150.3,53.3,149.2,52.2,149.2,50.8 M153.7,50.8L153.7,50.8c0-1.2-0.8-2-2-2s-2,0.9-2,2l0,0c0,1.2,0.8,2,2,2S153.7,51.9,153.7,50.8"
		/>
</g>
<g>
	<path class="st0" d="M152.7,50.9c-0.1,0.1-0.3,0.2-0.5,0.3l0.6,0.9h-0.5l-0.6-0.9h-0.4v0.9h-0.5v-2.6h1.1c0.2,0,0.3,0,0.5,0.1
		c0.1,0.1,0.3,0.2,0.3,0.3c0.1,0.1,0.1,0.3,0.1,0.4C152.9,50.6,152.8,50.8,152.7,50.9z M151.3,50.8h0.6c0.2,0,0.3,0,0.4-0.1
		c0.1-0.1,0.1-0.2,0.1-0.3s-0.1-0.2-0.1-0.3c-0.1-0.1-0.2-0.1-0.4-0.1h-0.6V50.8z"/>
</g>
</svg>
